<svg width="36" height="53" fill="none" xmlns="http://www.w3.org/2000/svg"><path fill-rule="evenodd" clip-rule="evenodd" d="M21.715 24.351l-.996-12.254 9.512 11.922.528.663-9.044-.33zM5.288 47.224h24.628V29.24H5.288v17.985zM35.4 24.682l-.11-.136-.026-.025-14.75-17.874-.408-.494c-.29-.256-.673-.4-1.09-.4h-5.11V4.509H5.961v1.244H1.703C.766 5.753 0 6.51 0 7.456v43.566c0 .946.766 1.703 1.703 1.703h32.36c.937 0 1.703-.757 1.703-1.703v-25.3c0-.401-.136-.759-.366-1.04zM20.515 6.646l-.409-.494c.171.135.308.307.409.494zM5.288 3.655h9.297V0H5.288v3.655z" fill="#EDEDED"/><path fill-rule="evenodd" clip-rule="evenodd" d="M17.048 43.324c-.29.392-.86.043-1.2-.145-.41-.221-1.201-.869-1.133-1.43.119-.793.911-.256 1.362.118.596.546 1.099 1.295.971 1.457zm4.369-5.161l-.068-.102-3.458-6.174-3.662 6.506a4.046 4.046 0 00-.519 2.018 4.17 4.17 0 004.181 4.165 4.162 4.162 0 004.173-4.165c0-.826-.238-1.601-.647-2.248z" fill="#EDEDED"/></svg>