<svg width="43" height="50" fill="none" xmlns="http://www.w3.org/2000/svg"><path fill-rule="evenodd" clip-rule="evenodd" d="M22.765 50l-.633-7.5H21.5c-5.986 0-11.066-2.063-15.24-6.188C2.087 32.188 0 27.168 0 21.25S2.087 10.312 6.26 6.187C10.434 2.063 15.514 0 21.5 0c2.993 0 5.786.552 8.377 1.655a21.77 21.77 0 016.832 4.563 21.462 21.462 0 014.614 6.75C42.441 15.53 43 18.291 43 21.25c0 3.125-.516 6.125-1.548 9a31.772 31.772 0 01-4.237 8c-1.792 2.458-3.921 4.688-6.387 6.688A39.683 39.683 0 0122.765 50zM21.5 35a2.41 2.41 0 001.768-.732A2.41 2.41 0 0024 32.5a2.41 2.41 0 00-.732-1.768A2.41 2.41 0 0021.5 30a2.41 2.41 0 00-1.768.732A2.41 2.41 0 0019 32.5c0 .691.244 1.28.732 1.768A2.41 2.41 0 0021.5 35zm-1.94-8h3.88c0-1.25.129-2.125.388-2.625.258-.5 1.077-1.417 2.457-2.75a11.594 11.594 0 001.94-2.438A5.434 5.434 0 0029 16.375c0-2.125-.743-3.72-2.23-4.783C25.284 10.531 23.527 10 21.5 10c-1.897 0-3.491.51-4.785 1.53-1.293 1.022-2.198 2.262-2.715 3.72l3.62 1.375c.216-.708.626-1.407 1.23-2.095.603-.687 1.486-1.03 2.65-1.03s2.037.313 2.62.938c.58.624.871 1.312.871 2.062a3.05 3.05 0 01-.646 1.905 15.59 15.59 0 01-1.552 1.72c-1.508 1.25-2.424 2.24-2.746 2.968-.325.73-.487 2.032-.487 3.907z" fill="#D16527"/></svg>