<svg width="50" height="50" fill="none" xmlns="http://www.w3.org/2000/svg"><path d="M27.128 39.564v-8.347H18.78v-8.348h-8.347V13L1.22 22.218a4.18 4.18 0 000 5.903l20.654 20.66a4.18 4.18 0 005.9 0l.01.006L37 39.565h-9.872z" fill="#D16527"/><path fill-rule="evenodd" clip-rule="evenodd" d="M27.911 0h17.972A4.125 4.125 0 0150 4.12v17.968c0 2.266-1.306 5.427-2.91 7.029L41.21 35h-9.74v-8.236h-8.235V18.53H15V8.794l5.883-5.882C22.487 1.312 25.648-.002 27.91 0zm10.275 11.818a3.093 3.093 0 004.37 0 3.095 3.095 0 00-.003-4.369 3.09 3.09 0 00-4.367 4.369z" fill="#D16527"/></svg>