<svg width="50" height="50" fill="none" xmlns="http://www.w3.org/2000/svg"><path fill-rule="evenodd" clip-rule="evenodd" d="M38.993 39.342l-1.575 1.414c-.426.325-.928.7-1.473 1.048-.63.435-1.278.808-1.908 1.107-2.853 1.5-6.114 2.3-9.418 2.3h-.052a20.06 20.06 0 01-9.529-2.402l-1.865-1.115a14.111 14.111 0 01-1.328-.971l-.017-.009-.17-.119-1.422-1.303-.094-.094c-3.943-3.934-6.106-9.128-6.08-14.638.008-1.2.119-2.333.332-3.466.119-.776.273-1.474.468-2.13.128-.442.298-.911.451-1.353l.094-.256c.298-.817.596-1.464.937-2.06 2.98-5.927 8.72-10.058 15.337-11.012.69-.11 1.405-.17 2.103-.178.23-.027.47-.035.716-.035l.22-.008c.333 0 .622.008.938.051.536.009 1.2.068 2.077.188 6.592 1.005 12.306 5.177 15.303 11.164.384.775.665 1.414.869 2.017.23.503.392 1.1.536 1.653.23.75.392 1.49.478 2.155.178 1.02.28 2.188.289 3.415-.026 5.569-2.231 10.764-6.217 14.637zM24.73 0C11.155-.06.05 10.95 0 24.526-.06 38.117 10.95 49.23 24.542 49.28c13.566.052 24.67-10.95 24.738-24.541C49.323 11.156 38.321.05 24.73 0z" fill="#EDEDED"/><path fill-rule="evenodd" clip-rule="evenodd" d="M37.435 37.376l-6.59-10.823 11.649-4.668c.162.928.221 1.883.213 2.82-.009 4.803-1.882 9.299-5.272 12.671zm-1.575 1.44c-.417.306-.81.621-1.286.928-.008 0-.017.017-.026.034l-6.812-9.427a6.384 6.384 0 001.37-1.005l6.78 9.435c-.01.017-.01.017-.026.035zm-11.284 3.908c-2.895-.017-5.663-.698-8.158-2.001l8.133-9.589 8.158 9.666c-2.504 1.286-5.262 1.924-8.133 1.924zm-9.989-3.074l-.05-.051a9.664 9.664 0 01-1.193-.868l-.077-.06 6.847-9.376c.4.4.86.74 1.354 1.005l-6.88 9.35zm-2.877-2.401c-3.34-3.414-5.18-7.903-5.162-12.689.009-.928.103-1.848.247-2.793l.12.042 11.513 4.727-6.718 10.713zM7.264 19.655c.128-.486.298-.97.477-1.448.008-.01.017-.05.034-.068l11.045 3.645a6.345 6.345 0 00-.554 1.584L7.24 19.723a.663.663 0 00.025-.068zM21.792 6.788l-.91 12.552v.008h-.01l-12.22-3.116c2.665-5.042 7.536-8.559 13.14-9.444zM20.31 24.1a.941.941 0 110-1.882.942.942 0 110 1.882zm1.636 3.228a.941.941 0 110 1.882.942.942 0 110-1.882zm2.69-5.306a2.625 2.625 0 012.623 2.623 2.622 2.622 0 01-2.623 2.614 2.62 2.62 0 01-2.614-2.614 2.623 2.623 0 012.614-2.623zm0-2.997c.528 0 .945.417.945.944 0 .52-.417.938-.945.938a.941.941 0 110-1.882zm-.791-12.433a.813.813 0 01.195-.026c.179-.01.35-.01.536-.01h.256c.17 0 .366 0 .673.036h.034l-.043 11.615a5.771 5.771 0 00-.86-.06c-.29 0-.57.018-.851.06l.06-11.615zm4.444 21.68c0 .52-.417.938-.945.938a.941.941 0 110-1.882c.528 0 .945.417.945.944zm1.652-5.11c0 .52-.425.938-.945.938a.942.942 0 110-1.882c.52 0 .945.417.945.945zm10.764-6.82l-12.262 3.032-.835-12.552c5.604.91 10.449 4.47 13.097 9.52zm.886 2.053c.196.468.35.987.468 1.43 0 .017 0 .017.009.034l-11.062 3.544a6.22 6.22 0 00-.52-1.577l11.062-3.56c.017.052.017.077.043.129zm2.487 2.996a12.221 12.221 0 00-.46-2.043c-.137-.536-.281-1.073-.511-1.584a17.53 17.53 0 00-.826-1.916c-2.81-5.612-8.227-9.725-14.656-10.705-.69-.093-1.388-.17-2.07-.186a6.547 6.547 0 00-.825-.043c-.307.008-.596 0-.877.043a14.78 14.78 0 00-2.053.17c-6.438.927-11.896 4.99-14.715 10.594-.358.621-.63 1.251-.877 1.916-.179.51-.375 1.047-.528 1.575-.196.656-.34 1.337-.451 2.035a18.53 18.53 0 00-.315 3.313c-.026 5.483 2.23 10.448 5.833 14.034l.068.068 1.422 1.303.06.026c.417.357.877.68 1.32.97l1.822 1.099a19.326 19.326 0 009.129 2.3 19.415 19.415 0 009.103-2.215 13.2 13.2 0 001.814-1.056c.477-.306.928-.639 1.364-.971l1.549-1.387a19.64 19.64 0 005.96-14.018 20.406 20.406 0 00-.28-3.322z" fill="#EDEDED"/></svg>