<svg width="25" height="36" fill="none" xmlns="http://www.w3.org/2000/svg"><path fill-rule="evenodd" clip-rule="evenodd" d="M14.875 16.714l-.682-7.98 6.515 7.763.362.432-6.195-.215zM3.623 31.608h16.87V19.897H3.622v11.711zM24.248 16.93l-.076-.088-.017-.017-10.103-11.64-.28-.32a1.155 1.155 0 00-.747-.261h-3.5v-.81H4.083v.81H1.167C.525 4.603 0 5.096 0 5.712V34.08c0 .616.525 1.11 1.167 1.11h22.166c.642 0 1.167-.494 1.167-1.11V17.606c0-.26-.093-.494-.25-.677zM14.053 5.185l-.28-.322c.117.088.21.2.28.322zM3.623 3.237h6.368V.857H3.623v2.38z" fill="#D16527"/></svg>