<svg width="49" height="52" fill="none" xmlns="http://www.w3.org/2000/svg"><path fill-rule="evenodd" clip-rule="evenodd" d="M46.403 9.247h.196v-.08l-.196.08zm-.11-.97c.11 0 .212.02.306.04v-.04h-.307zm-17.066.88v.09h.221l-.221-.09z" fill="#EDEDED"/><path fill-rule="evenodd" clip-rule="evenodd" d="M46.624 14.306l-5.757 2.027v-4.062l5.757-2.027v4.063zm0 5.272l-5.757 2.027V17.55l5.757-2.027v4.054zm0 5.28l-5.757 2.026v-4.053l5.757-2.035v4.062zm0 5.27l-5.757 2.028v-4.054l5.757-2.027v4.054zm0 5.28l-5.757 2.027v-4.053l5.757-2.027v4.054zm0 5.272l-5.757 2.035v-4.062l5.757-2.027v4.054zm0 5.28l-5.757 2.026v-4.053l5.757-2.027v4.054zm0 4.113h-5.757v-.86l5.757-2.035v2.895zm-8.226 0h1.337V9.103h-1.337v40.97zm-2.274 0h1.328V9.103h-1.328v40.97zm-6.898 0v-2.895l5.757 2.035v.86h-5.757zm0-8.167l5.757 2.027v4.053l-5.757-2.026v-4.054zm0-5.28l5.757 2.027v4.062l-5.757-2.035v-4.054zm0-5.27l5.757 2.026v4.053l-5.757-2.026v-4.054zm0-5.28l5.757 2.026v4.054l-5.757-2.027v-4.054zm0-5.28l5.757 2.035v4.053l-5.757-2.026v-4.062zm0-5.272l5.757 2.027v4.054l-5.757-2.027v-4.054zm0-5.28l5.757 2.027v4.062l-5.757-2.026v-4.063zm0-1.217l.222.076h5.535v1.95l-5.535-1.95h-.222v-.076zm11.641.076h5.536l.196-.068v.068h-.196l-5.536 1.95v-1.95zm6.268-.783a1.48 1.48 0 00-.332-.043h-.204v.034a1.688 1.688 0 00-.307-.034H29.115c-.834 0-1.515.682-1.515 1.525v39.743c0 .843.68 1.516 1.515 1.516h17.688c.11 0 .221-.009.332-.034a1.518 1.518 0 001.184-1.482V9.802a1.51 1.51 0 00-1.184-1.482z" fill="#EDEDED"/><path fill-rule="evenodd" clip-rule="evenodd" d="M38.398 51.07h1.337v-.01h-1.337v.01zm-2.273 0h1.328v-.01h-1.328v.01zm-10.842-8.649h1.405V16.92h-1.405v25.5zm-.851-16.116v6.736H0v-6.736h10.67c.137.486.375.937.69 1.312.58.69 1.388 1.081 2.231 1.081 1.363 0 2.513-1.005 2.921-2.393h7.92M15.798 2.223h-4.411C11.566.963 12.485 0 13.592 0c.614 0 1.175.298 1.576.775.332.383.553.886.63 1.448" fill="#EDEDED"/><path fill-rule="evenodd" clip-rule="evenodd" d="M15.822 24.721v.477c0 1.465-.997 2.648-2.231 2.648-.614 0-1.176-.298-1.576-.774a2.924 2.924 0 01-.656-1.874v-.477h4.463m1.482-17.082h-2.129l2.29.826a1.695 1.695 0 01.197.093.93.93 0 01-.358 1.788h-2.129l2.29.827c.06.025.12.05.18.085.008.008.008.008.017.008a.932.932 0 01-.358 1.788H15.2l2.265.818c.068.026.136.06.196.102a.925.925 0 01-.358 1.78h-2.129l2.29.826c.06.026.12.051.171.085a.93.93 0 01-.332 1.797h-2.129l2.29.826c.06.026.12.051.18.085a.925.925 0 01-.34 1.788h-2.13l2.29.827c.06.025.12.05.18.085.008.008.008.008.017.008a.93.93 0 01-.358 1.788H9.572a.932.932 0 110-1.864h2.444l-2.342-.843h-.102a.932.932 0 01-.937-.928c0-.511.417-.929.937-.929h2.46L9.7 18.462h-.127a.932.932 0 110-1.865h2.444l-2.342-.843h-.102a.932.932 0 01-.937-.928c0-.51.417-.928.937-.928h2.46L9.7 13.055h-.127a.932.932 0 110-1.865h2.46L9.7 10.347h-.127a.932.932 0 110-1.865h2.444l-2.342-.843h-.102a.932.932 0 01-.937-.929c0-.51.417-.928.937-.928h2.46L9.7 4.94h-.127a.932.932 0 110-1.865h7.732a.932.932 0 010 1.865h-2.129l2.29.826a1.695 1.695 0 01.197.094.925.925 0 01-.358 1.78m12.144 1.463h-.222v-.076l.222.076m17.15-.826v.034a1.688 1.688 0 00-.307-.034h.307m.001.758v.068h-.196l.196-.068" fill="#EDEDED"/></svg>