<svg width="58" height="21" fill="none" xmlns="http://www.w3.org/2000/svg"><path fill-rule="evenodd" clip-rule="evenodd" d="M47 8.615v3.219H33.36a4.657 4.657 0 01-4.385 3.071 4.655 4.655 0 01-4.378-3.071H10.958V8.615h13.631a4.653 4.653 0 012.714-2.754V3.606h-.832v-1.5h5.008v1.5h-.824v2.255a4.674 4.674 0 012.713 2.754H47zm10.138-5.778l-2.709.954V1.88l2.71-.952v1.91zm0 2.48l-2.709.955V4.364l2.71-.953v1.906zm0 2.486l-2.709.954V6.848l2.71-.957v1.912zm0 2.48l-2.709.955V9.329l2.71-.953v1.907zm0 2.485l-2.709.954v-1.908l2.71-.955v1.909zm0 2.481l-2.709.957v-1.911l2.71-.954v1.908zm0 2.484l-2.709.954V16.78l2.71-.954v1.908zm0 1.936H54.43v-.405l2.71-.958v1.363zm-3.872 0h.631V.389h-.631v19.28zm-1.07 0h.626V.389h-.626v19.28zm-3.245 0v-1.363l2.71.958v.405h-2.71zm0-3.844l2.71.954v1.908l-2.71-.954v-1.908zm0-2.484l2.71.954v1.911l-2.71-.957v-1.908zm0-2.482l2.71.955v1.908l-2.71-.954v-1.909zm0-2.483l2.71.953v1.909l-2.71-.955V8.376zm0-2.485l2.71.957v1.909l-2.71-.954V5.891zm0-2.48l2.71.953v1.908l-2.71-.955V3.411zm0-2.484l2.71.952v1.912l-2.71-.954V.927zm0-.574l.104.035h2.606v.918L49.055.388h-.104V.353zm5.478.035h2.605l.092-.031v.031h-.092l-2.605.918V.388zm2.948-.367A.6.6 0 0057.223 0h-.097v.016A.752.752 0 0056.982 0h-8.084a.716.716 0 00-.713.717V19.42c0 .397.32.714.713.714h8.325a.715.715 0 00.713-.714V.717a.71.71 0 00-.559-.696zM8.953 2.837l-2.71.954V1.88l2.71-.952v1.91zm0 2.48l-2.71.955V4.364l2.71-.953v1.906zm0 2.486l-2.71.954V6.848l2.71-.957v1.912zm0 2.48l-2.71.955V9.329l2.71-.953v1.907zm0 2.485l-2.71.954v-1.908l2.71-.955v1.909zm0 2.481l-2.71.957v-1.911l2.71-.954v1.908zm0 2.484l-2.71.954V16.78l2.71-.954v1.908zm0 1.936h-2.71v-.405l2.71-.958v1.363zm-3.872 0h.63V.389h-.63v19.28zm-1.07 0h.625V.389h-.625v19.28zm-3.246 0v-1.363l2.71.958v.405H.764zm0-3.844l2.71.954v1.908l-2.71-.954v-1.908zm0-2.484l2.71.954v1.911l-2.71-.957v-1.908zm0-2.482l2.71.955v1.908l-2.71-.954v-1.909zm0-2.483l2.71.953v1.909l-2.71-.955V8.376zm0-2.485l2.71.957v1.909l-2.71-.954V5.891zm0-2.48l2.71.953v1.908l-2.71-.955V3.411zm0-2.484l2.71.952v1.912l-2.71-.954V.927zm0-.574l.104.035h2.605v.918L.87.388H.765V.353zm5.479.035h2.604L8.94.357v.031h-.092l-2.604.918V.388zM9.192.021A.607.607 0 009.037 0H8.94v.016A.742.742 0 008.797 0H.713A.716.716 0 000 .717V19.42c0 .397.32.714.713.714h8.324a.716.716 0 00.713-.714V.717a.71.71 0 00-.558-.696z" fill="#EDEDED"/></svg>