<svg width="35" height="35" fill="none" xmlns="http://www.w3.org/2000/svg"><path d="M35 4.375c0 2.418-3.48 4.375-7.777 4.375-4.295 0-7.778-1.957-7.778-4.375C19.445 1.958 22.928 0 27.223 0c4.298 0 7.778 1.958 7.778 4.375zM19.445 8.75c1.909 1.314 4.638 2.114 7.778 2.114 3.139 0 5.87-.8 7.778-2.114v3.18c-2.168 1.064-4.83 1.681-7.778 1.681-2.947 0-5.61-.617-7.778-1.682V8.75zm3.888 16.041c0 2.419-3.48 4.375-7.778 4.375-4.295 0-7.778-1.956-7.778-4.375 0-2.416 3.483-4.375 7.778-4.375 4.298 0 7.778 1.959 7.778 4.375zm3.647-1.288c-.253 0-.484-.037-.73-.046v2.756c.245.008.48.037.73.037 3.038 0 5.784-.617 8.02-1.682v-3.18c-1.967 1.314-4.784 2.115-8.02 2.115zm0 4.861c-.253 0-.484-.036-.73-.046v2.756c.245.008.48.037.73.037 3.038 0 5.784-.617 8.02-1.682V26.25c-1.967 1.313-4.784 2.114-8.02 2.114zM7.777 30.139c1.909 1.313 4.638 2.114 7.778 2.114 3.14 0 5.87-.801 7.778-2.114v3.179C21.165 34.383 18.502 35 15.555 35c-2.947 0-5.61-.617-7.778-1.682v-3.18zM7.292 8.75H4.375a1.457 1.457 0 01-1.458-1.458h-.003.003c0-.807.652-1.459 1.458-1.459v-.001.001h2.917c.806 0 1.458.652 1.458 1.459h2.917a4.376 4.376 0 00-4.375-4.375V0H4.375v2.917a4.376 4.376 0 000 8.75h2.917c.806 0 1.458.652 1.458 1.458h-.003c0 .806-.652 1.458-1.458 1.458H4.375a1.457 1.457 0 01-1.458-1.458H0A4.376 4.376 0 004.375 17.5v2.917h2.917V17.5a4.375 4.375 0 004.372-4.375h.003A4.376 4.376 0 007.292 8.75zm12.153 6.806c1.909 1.313 4.638 2.114 7.778 2.114 3.139 0 5.87-.801 7.778-2.114v3.179c-2.168 1.064-4.83 1.682-7.778 1.682-2.947 0-5.61-.618-7.778-1.682v-3.18z" fill="#D16527"/></svg>