<svg version="1.2" xmlns="http://www.w3.org/2000/svg" viewBox="0 0 1920 1080" width="1920" height="1080">
	<title>Tag-Logo-final-ai</title>
	<style>
		tspan { white-space:pre } 
		.t0 { font-size: 49px;line-height: 75px;text-transform: uppercase;fill: #707176;font-weight: 500;font-family: "Poppins-Medium", "Poppins" } 
		.s1 { fill: #532d89 } 
		.s2 { fill: none;stroke: #a6a9ab;stroke-miterlimit:10;stroke-width: 4.6 } 
		.s3 { fill: none;stroke: #a6a9ab;stroke-miterlimit:10;stroke-width: 4.2 } 
	</style>
	<g id="Layer 1">
		<text id="Detailing Services
" style="transform: matrix(1,0,0,1,958.74,778.55)" >
			<tspan x="-309.9" y="0" class="t0" dx="0 8 8 8 8 8 8 8 8 8 8 8 8 8 8 8 8 8 8" >DETAILING SERVICES
</tspan>
		</text>
		<path id="&lt;Path&gt;" class="s1" d="m1029 440.2q0 0 0 0 0 0 0-0.1z"/>
		<path id="&lt;Path&gt;" class="s2" d="m529 746.5h90"/>
		<path id="&lt;Path&gt;" class="s3" d="m1298.4 746.5h90"/>
		<path id="&lt;Path&gt;" class="s1" d="m1203.6 501.7l-14.9 79.8h82.2l-6.2 30.6c-9 4.8-19.8 8.9-32.4 12.1-15.2 3.9-30.8 5.8-47 5.8-12.6 0-23.2-1.8-32-5.2-8.9-3.3-16.1-8.1-22.2-14.6-6.2-6.6-10.9-14.3-14.1-23.8-3.2-9.4-4.9-20.5-4.9-33.5 0-27.2 4.8-50.5 14-70.5 9.3-19.9 22-34.5 38.8-45 16.8-10.5 36.2-15.8 59.5-15.9 9 0 16.9 1.1 23.8 3.2 6.8 2 12.7 5 18 8.8 5.2 4 9.5 8.6 13.1 14.2 3.6 5.6 6.4 12.1 8.4 19.9l3.7 14.6 97-26.8-4.1-14.4c-4.7-16.4-11.7-31.2-21-44.2-9.4-13.1-21.1-24.3-34.8-33.5-13.7-9.2-29.1-16.1-45.9-20.7-16.8-4.5-34.9-6.7-54.4-6.7-42.2 0-80.4 8.9-113.6 27-33.2 18.1-59.3 44.5-77.2 78-6.2 11.4-11.3 23.3-15.3 35.8-7.9 24.2-11.8 50.4-11.8 78.4 0 24.4 3.6 46.6 11.2 66.4 7.4 19.4 18.7 36.4 33.5 50.5 0.4 0.3 0.7 0.6 1 0.9 4.7 4.3 9.5 8.3 14.6 11.8l3.8 2.8 235.8 0.4 19.6-0.2q1.4 0 2.6-0.1h15l5.2-28 0.7-3.4 0.1-0.5 3.9-20.6h-0.1l24.7-133.4z"/>
		<g id="&lt;Group&gt;">
			<path id="&lt;Path&gt;" class="s1" d="m697.7 648.6l42.4-222.4h81.8l42.7-76.5 4.2-7.6 0.5-0.7h-323.9l-16.4 84.8h109.8l-51.1 261.7h88z"/>
			<path id="&lt;Compound Path&gt;" fill-rule="evenodd" class="s1" d="m687.9 687.9l22.4-40.1 124.2-222.4 42.7-76.4 4.2-7.6h105.2l22.9 135.6c-7.9 24.2-11.8 50.4-11.8 78.3 0 24.4 3.7 46.6 11.3 66.5 7.4 19.3 18.7 36.3 33.5 50.4l2.6 15.7h-100.3l-9.8-63.8h-107.9l-34.6 63.8zm183.7-147h53.5l-11.7-78.6c-0.7 1.4-1.4 2.7-2.1 4.1l-0.1 0.1z"/>
		</g>
	</g>
</svg>